<svg width="0" height="0" class="hidden" _ngcontent-ccb-c207="" aria-hidden="true">
  <symbol viewBox="0 0 60 60" fill="none" xmlns="http://www.w3.org/2000/svg" id="top-notepad" _ngcontent-ccb-c207="">
    <path d="M45.8203 31.7578V5.27344C45.8203 2.35875 43.3481 0 40.4297 0H15.8201C15.3744 0 14.916 0.17625 14.5723 0.520078L0.509766 14.6998C0.18668 15.0254 0 15.4784 0 15.9375V54.7266C0 57.6343 2.36566 60 5.27344 60C8.98195 60 10.2134 60 10.2081 60C15.5991 60 26.2071 60 45.8203 60C53.582 60 60 53.6093 60 45.8203C60 38.0662 53.6391 31.7578 45.8203 31.7578ZM14.0625 6.0266V14.1797H5.9768L14.0625 6.0266ZM5.27344 56.4844C4.30418 56.4844 3.51562 55.6958 3.51562 54.7266V17.6953H15.8203C16.7911 17.6953 17.5781 16.9083 17.5781 15.9375V3.51562H40.4297C41.4285 3.51562 42.3047 4.33699 42.3047 5.27344V32.1955C38.5737 33.1428 35.4308 35.5617 33.5441 38.7891H8.78906C7.81828 38.7891 7.03125 39.5761 7.03125 40.5469C7.03125 41.5177 7.81828 42.3047 8.78906 42.3047H32.0892C31.7965 43.4287 31.6406 44.6068 31.6406 45.8203H8.78906C7.81828 45.8203 7.03125 46.6073 7.03125 47.5781C7.03125 48.5489 7.81828 49.3359 8.78906 49.3359H32.0865C32.797 52.0848 34.3332 54.5624 36.5258 56.4844H5.27344ZM45.8203 56.4844C40.0398 56.4844 35.1562 51.6008 35.1562 45.8203C35.1562 40.0048 39.9401 35.2734 45.8203 35.2734C51.7005 35.2734 56.4844 40.0048 56.4844 45.8203C56.4844 51.6008 51.6008 56.4844 45.8203 56.4844Z" fill="#606A71" _ngcontent-ccb-c207=""></path>
  </symbol>
  <symbol viewBox="0 0 60 60" fill="none" xmlns="http://www.w3.org/2000/svg" id="top-search" _ngcontent-ccb-c207="">
    <path d="M24.7306 49.4153C11.1067 49.4153 0.0229492 38.3315 0.0229492 24.7076C0.0229492 11.0838 11.1067 0 24.7306 0C38.3545 0 49.4382 11.0838 49.4382 24.7076C49.4382 38.3315 38.3545 49.4153 24.7306 49.4153ZM24.7306 4.68391C13.6894 4.68391 4.70686 13.6665 4.70686 24.7076C4.70686 35.7488 13.6894 44.7314 24.7306 44.7314C35.7718 44.7314 44.7543 35.7488 44.7543 24.7076C44.7543 13.6665 35.7718 4.68391 24.7306 4.68391ZM59.2912 59.314C60.2057 58.3994 60.2057 56.9165 59.2912 56.0019L48.8109 45.5217C47.8963 44.607 46.4134 44.607 45.4988 45.5217C44.5843 46.4363 44.5843 47.9192 45.4988 48.8338L55.9791 59.314C56.4364 59.7713 57.0358 59.9999 57.6352 59.9999C58.2346 59.9999 58.8338 59.7713 59.2912 59.314Z" fill="#606A71" _ngcontent-ccb-c207=""></path>
  </symbol>
  <symbol viewBox="0 0 62 62" fill="none" xmlns="http://www.w3.org/2000/svg" id="top-union" _ngcontent-ccb-c207="">
    <mask id="path-1-outside-1" maskUnits="userSpaceOnUse" x="0" y="0" fill="black" _ngcontent-ccb-c207="">
      <rect fill="white" _ngcontent-ccb-c207=""></rect>
      <path fill-rule="evenodd" clip-rule="evenodd" d="M35.7494 61C34.1667 61 32.584 60.4074 31.3763 59.2223L2.87775 31.2988C1.6801 30.1261 0.997515 28.4959 1.00002 26.8182L1.05252 4.79547C1.05502 2.73772 2.73523 1.05751 4.79299 1.05251L26.8183 1H26.8358C28.501 1 30.1262 1.68259 31.2988 2.87523L59.2223 31.3738C61.6101 33.8116 61.5876 37.7571 59.1748 40.1699L40.1699 59.1748C38.9598 60.3899 37.3546 61 35.7494 61ZM26.8333 3.50031H26.8232L4.80049 3.55282C4.11291 3.55532 3.55534 4.11539 3.55284 4.80048L3.50033 26.8232C3.49783 27.8284 3.90788 28.8085 4.62547 29.5111L33.124 57.4346C34.5892 58.8672 36.9495 58.8572 38.4022 57.4071L57.4071 38.4022C58.8548 36.9545 58.8673 34.5867 57.4346 33.1265L29.5111 4.62795C28.811 3.91036 27.8334 3.50031 26.8333 3.50031ZM13.5616 18.5622C10.8012 18.5622 8.55844 16.3194 8.55844 13.5616C8.55844 10.8037 10.8012 8.56096 13.5616 8.56096C16.3194 8.56096 18.5622 10.8037 18.5622 13.5616C18.5622 16.3194 16.3194 18.5622 13.5616 18.5622ZM13.5616 11.0613C12.1814 11.0613 11.0588 12.1839 11.0588 13.5616C11.0588 14.9418 12.1814 16.0619 13.5616 16.0619C14.9417 16.0619 16.0619 14.9393 16.0619 13.5616C16.0619 12.1839 14.9417 11.0613 13.5616 11.0613ZM17.6171 34.3867C17.8596 34.6317 18.1822 34.7542 18.5022 34.7542C18.8223 34.7542 19.1398 34.6342 19.3848 34.3892L34.3867 19.4473C34.8768 18.9572 34.8768 18.1672 34.3917 17.6771C33.9041 17.187 33.1115 17.1895 32.624 17.6746L17.6221 32.6165C17.132 33.1065 17.132 33.8966 17.6171 34.3867ZM24.7529 41.005C24.4329 41.005 24.1103 40.8825 23.8678 40.6375C23.3828 40.1474 23.3828 39.3573 23.8728 38.8672L38.8747 23.9254C39.3623 23.4403 40.1549 23.4378 40.6424 23.9279C41.1275 24.4179 41.1275 25.208 40.6374 25.6981L25.6355 40.64C25.3905 40.885 25.073 41.005 24.7529 41.005ZM35.1192 51.8889C35.3618 52.1339 35.6843 52.2564 36.0043 52.2564C36.3244 52.2564 36.6419 52.1364 36.8869 51.8914L51.8888 36.9495C52.3789 36.4594 52.3789 35.6693 51.8938 35.1793C51.4063 34.6892 50.6137 34.6917 50.1261 35.1768L35.1242 50.1187C34.6342 50.6087 34.6342 51.3988 35.1192 51.8889Z" _ngcontent-ccb-c207=""></path>
    </mask>
    <path fill-rule="evenodd" clip-rule="evenodd" d="M35.7494 61C34.1667 61 32.584 60.4074 31.3763 59.2223L2.87775 31.2988C1.6801 30.1261 0.997515 28.4959 1.00002 26.8182L1.05252 4.79547C1.05502 2.73772 2.73523 1.05751 4.79299 1.05251L26.8183 1H26.8358C28.501 1 30.1262 1.68259 31.2988 2.87523L59.2223 31.3738C61.6101 33.8116 61.5876 37.7571 59.1748 40.1699L40.1699 59.1748C38.9598 60.3899 37.3546 61 35.7494 61ZM26.8333 3.50031H26.8232L4.80049 3.55282C4.11291 3.55532 3.55534 4.11539 3.55284 4.80048L3.50033 26.8232C3.49783 27.8284 3.90788 28.8085 4.62547 29.5111L33.124 57.4346C34.5892 58.8672 36.9495 58.8572 38.4022 57.4071L57.4071 38.4022C58.8548 36.9545 58.8673 34.5867 57.4346 33.1265L29.5111 4.62795C28.811 3.91036 27.8334 3.50031 26.8333 3.50031ZM13.5616 18.5622C10.8012 18.5622 8.55844 16.3194 8.55844 13.5616C8.55844 10.8037 10.8012 8.56096 13.5616 8.56096C16.3194 8.56096 18.5622 10.8037 18.5622 13.5616C18.5622 16.3194 16.3194 18.5622 13.5616 18.5622ZM13.5616 11.0613C12.1814 11.0613 11.0588 12.1839 11.0588 13.5616C11.0588 14.9418 12.1814 16.0619 13.5616 16.0619C14.9417 16.0619 16.0619 14.9393 16.0619 13.5616C16.0619 12.1839 14.9417 11.0613 13.5616 11.0613ZM17.6171 34.3867C17.8596 34.6317 18.1822 34.7542 18.5022 34.7542C18.8223 34.7542 19.1398 34.6342 19.3848 34.3892L34.3867 19.4473C34.8768 18.9572 34.8768 18.1672 34.3917 17.6771C33.9041 17.187 33.1115 17.1895 32.624 17.6746L17.6221 32.6165C17.132 33.1065 17.132 33.8966 17.6171 34.3867ZM24.7529 41.005C24.4329 41.005 24.1103 40.8825 23.8678 40.6375C23.3828 40.1474 23.3828 39.3573 23.8728 38.8672L38.8747 23.9254C39.3623 23.4403 40.1549 23.4378 40.6424 23.9279C41.1275 24.4179 41.1275 25.208 40.6374 25.6981L25.6355 40.64C25.3905 40.885 25.073 41.005 24.7529 41.005ZM35.1192 51.8889C35.3618 52.1339 35.6843 52.2564 36.0043 52.2564C36.3244 52.2564 36.6419 52.1364 36.8869 51.8914L51.8888 36.9495C52.3789 36.4594 52.3789 35.6693 51.8938 35.1793C51.4063 34.6892 50.6137 34.6917 50.1261 35.1768L35.1242 50.1187C34.6342 50.6087 34.6342 51.3988 35.1192 51.8889Z" fill="#606A71" _ngcontent-ccb-c207=""></path>
    <path d="M31.3763 59.2223L32.0767 58.5086L32.0762 58.508L31.3763 59.2223ZM2.87775 31.2988L3.57761 30.5845L3.57736 30.5843L2.87775 31.2988ZM1.00002 26.8182L1.8239e-05 26.8158L1.68681e-05 26.8167L1.00002 26.8182ZM1.05252 4.79547L2.05252 4.79786L2.05252 4.79669L1.05252 4.79547ZM4.79299 1.05251L4.79061 0.0525094L4.79056 0.0525095L4.79299 1.05251ZM26.8183 1V-2.86102e-06L26.8159 2.86102e-06L26.8183 1ZM31.2988 2.87523L32.0131 2.17537L32.0119 2.17413L31.2988 2.87523ZM59.2223 31.3738L59.9367 30.6741L59.9366 30.6739L59.2223 31.3738ZM59.1748 40.1699L59.8819 40.877L59.1748 40.1699ZM40.1699 59.1748L39.4628 58.4677L39.4614 58.4691L40.1699 59.1748ZM26.8232 3.50031V2.50031L26.8209 2.50032L26.8232 3.50031ZM4.80049 3.55282L4.79811 2.55282L4.79686 2.55283L4.80049 3.55282ZM3.55284 4.80048L2.55284 4.79683L2.55284 4.79809L3.55284 4.80048ZM3.50033 26.8232L4.50033 26.8257L4.50033 26.8256L3.50033 26.8232ZM4.62547 29.5111L5.32533 28.7968L5.32507 28.7965L4.62547 29.5111ZM33.124 57.4346L32.4242 58.1488L32.4249 58.1496L33.124 57.4346ZM38.4022 57.4071L39.1087 58.1148L39.1093 58.1142L38.4022 57.4071ZM57.4071 38.4022L58.1142 39.1093L57.4071 38.4022ZM57.4346 33.1265L56.7203 33.8264L56.7208 33.8269L57.4346 33.1265ZM29.5111 4.62795L28.7953 5.32628L28.7968 5.32782L29.5111 4.62795ZM17.6171 34.3867L18.3278 33.6832L18.3278 33.6832L17.6171 34.3867ZM19.3848 34.3892L18.6791 33.6807L18.6777 33.6821L19.3848 34.3892ZM34.3867 19.4473L35.0924 20.1558L35.0938 20.1544L34.3867 19.4473ZM34.3917 17.6771L35.1024 16.9736L35.1006 16.9718L34.3917 17.6771ZM32.624 17.6746L31.9187 16.9657L31.9183 16.9661L32.624 17.6746ZM17.6221 32.6165L16.9164 31.9079L16.915 31.9094L17.6221 32.6165ZM23.8678 40.6375L23.1571 41.3409L23.1571 41.3409L23.8678 40.6375ZM23.8728 38.8672L23.1671 38.1587L23.1657 38.1601L23.8728 38.8672ZM38.8747 23.9254L38.1694 23.2164L38.169 23.2168L38.8747 23.9254ZM40.6424 23.9279L41.3531 23.2244L41.3513 23.2226L40.6424 23.9279ZM40.6374 25.6981L41.3431 26.4066L41.3445 26.4052L40.6374 25.6981ZM25.6355 40.64L24.9299 39.9314L24.9284 39.9328L25.6355 40.64ZM35.1192 51.8889L35.83 51.1854L35.83 51.1854L35.1192 51.8889ZM36.8869 51.8914L36.1813 51.1829L36.1798 51.1843L36.8869 51.8914ZM51.8888 36.9495L52.5945 37.658L52.5959 37.6566L51.8888 36.9495ZM51.8938 35.1793L52.6045 34.4758L52.6027 34.474L51.8938 35.1793ZM50.1261 35.1768L49.4208 34.4679L49.4204 34.4683L50.1261 35.1768ZM35.1242 50.1187L34.4185 49.4101L34.4171 49.4116L35.1242 50.1187ZM30.6759 59.936C32.0799 61.3138 33.9182 62 35.7494 62V60C34.4152 60 33.0881 59.501 32.0767 58.5086L30.6759 59.936ZM2.17789 32.0131L30.6765 59.9366L32.0762 58.508L3.57761 30.5845L2.17789 32.0131ZM1.68681e-05 26.8167C-0.00288391 28.7632 0.787527 30.6517 2.17814 32.0133L3.57736 30.5843C2.57267 29.6006 1.99791 28.2287 2.00001 26.8197L1.68681e-05 26.8167ZM0.0525252 4.79309L1.85966e-05 26.8158L2.00001 26.8206L2.05252 4.79786L0.0525252 4.79309ZM4.79056 0.0525095C2.18265 0.0588471 0.0556936 2.18493 0.0525231 4.79426L2.05252 4.79669C2.05435 3.2905 3.28781 2.05617 4.79542 2.0525L4.79056 0.0525095ZM26.8159 2.86102e-06L4.79061 0.0525094L4.79537 2.0525L26.8206 2L26.8159 2.86102e-06ZM26.8358 0H26.8183V2H26.8358V0ZM32.0119 2.17413C30.652 0.791109 28.7703 0 26.8358 0V2C28.2316 2 29.6003 2.57406 30.5858 3.57634L32.0119 2.17413ZM59.9366 30.6739L32.0131 2.17537L30.5845 3.5751L58.508 32.0737L59.9366 30.6739ZM59.8819 40.877C62.682 38.077 62.7085 33.5039 59.9367 30.6741L58.5079 32.0735C60.5117 34.1193 60.4932 37.4372 58.4677 39.4628L59.8819 40.877ZM40.877 59.8819L59.8819 40.877L58.4677 39.4628L39.4628 58.4677L40.877 59.8819ZM35.7494 62C37.6064 62 39.471 61.2938 40.8785 59.8804L39.4614 58.4691C38.4486 59.4861 37.1027 60 35.7494 60V62ZM26.8232 4.50031H26.8333V2.50031H26.8232V4.50031ZM4.80288 4.55282L26.8256 4.50031L26.8209 2.50032L4.79811 2.55282L4.80288 4.55282ZM4.55283 4.80412C4.55333 4.66716 4.66729 4.55331 4.80413 4.55281L4.79686 2.55283C3.55852 2.55733 2.55734 3.56362 2.55284 4.79683L4.55283 4.80412ZM4.50033 26.8256L4.55283 4.80286L2.55284 4.79809L2.50033 26.8208L4.50033 26.8256ZM5.32507 28.7965C4.80058 28.283 4.4985 27.5616 4.50033 26.8257L2.50033 26.8207C2.49716 28.0951 3.01518 29.334 3.92587 30.2256L5.32507 28.7965ZM33.8239 56.7203L5.32533 28.7968L3.92561 30.2253L32.4242 58.1488L33.8239 56.7203ZM37.6957 56.6993C36.6309 57.7623 34.8972 57.7698 33.8232 56.7196L32.4249 58.1496C34.2812 59.9647 37.2681 59.9522 39.1087 58.1148L37.6957 56.6993ZM56.7 37.6951L37.6951 56.6999L39.1093 58.1142L58.1142 39.1093L56.7 37.6951ZM56.7208 33.8269C57.7686 34.8948 57.7604 36.6347 56.7 37.6951L58.1142 39.1093C59.9491 37.2743 59.9659 34.2786 58.1484 32.4262L56.7208 33.8269ZM28.7968 5.32782L56.7203 33.8264L58.1488 32.4267L30.2254 3.92809L28.7968 5.32782ZM26.8333 4.50031C27.5649 4.50031 28.2841 4.8023 28.7953 5.32628L30.2269 3.92963C29.3379 3.01843 28.1019 2.50031 26.8333 2.50031V4.50031ZM7.55844 13.5616C7.55844 16.872 10.2493 19.5622 13.5616 19.5622V17.5622C11.3532 17.5622 9.55844 15.7668 9.55844 13.5616H7.55844ZM13.5616 7.56096C10.2493 7.56096 7.55844 10.2511 7.55844 13.5616H9.55844C9.55844 11.3563 11.3532 9.56096 13.5616 9.56096V7.56096ZM19.5622 13.5616C19.5622 10.2515 16.8717 7.56096 13.5616 7.56096V9.56096C15.7671 9.56096 17.5622 11.356 17.5622 13.5616H19.5622ZM13.5616 19.5622C16.8717 19.5622 19.5622 16.8717 19.5622 13.5616H17.5622C17.5622 15.7671 15.7671 17.5622 13.5616 17.5622V19.5622ZM12.0588 13.5616C12.0588 12.7368 12.733 12.0613 13.5616 12.0613V10.0613C11.6298 10.0613 10.0588 11.631 10.0588 13.5616H12.0588ZM13.5616 15.0619C12.7324 15.0619 12.0588 14.3882 12.0588 13.5616H10.0588C10.0588 15.4953 11.6304 17.0619 13.5616 17.0619V15.0619ZM15.0619 13.5616C15.0619 14.3876 14.3888 15.0619 13.5616 15.0619V17.0619C15.4947 17.0619 17.0619 15.4909 17.0619 13.5616H15.0619ZM13.5616 12.0613C14.3888 12.0613 15.0619 12.7355 15.0619 13.5616H17.0619C17.0619 11.6323 15.4947 10.0613 13.5616 10.0613V12.0613ZM18.5022 33.7542C18.4349 33.7542 18.3727 33.7286 18.3278 33.6832L16.9064 35.0901C17.3465 35.5349 17.9295 35.7542 18.5022 35.7542V33.7542ZM18.6777 33.6821C18.6289 33.7309 18.5696 33.7542 18.5022 33.7542V35.7542C19.0749 35.7542 19.6507 35.5375 20.0919 35.0963L18.6777 33.6821ZM33.681 18.7388L18.6791 33.6807L20.0905 35.0977L35.0924 20.1558L33.681 18.7388ZM33.681 18.3806C33.7797 18.4803 33.7797 18.6401 33.6796 18.7402L35.0938 20.1544C35.9738 19.2744 35.9738 17.854 35.1024 16.9736L33.681 18.3806ZM33.3293 18.3835C33.4287 18.2846 33.5882 18.2873 33.6828 18.3824L35.1006 16.9718C34.2201 16.0868 32.7944 16.0945 31.9187 16.9657L33.3293 18.3835ZM18.3278 33.325L33.3297 18.3831L31.9183 16.9661L16.9164 31.9079L18.3278 33.325ZM18.3278 33.6832C18.2291 33.5834 18.2291 33.4237 18.3292 33.3236L16.915 31.9094C16.035 32.7893 16.035 34.2098 16.9064 35.0902L18.3278 33.6832ZM23.1571 41.3409C23.5973 41.7856 24.1802 42.005 24.7529 42.005V40.005C24.6856 40.005 24.6234 39.9793 24.5785 39.934L23.1571 41.3409ZM23.1657 38.1601C22.2857 39.0401 22.2857 40.4606 23.1571 41.3409L24.5785 39.934C24.4798 39.8342 24.4798 39.6745 24.5799 39.5743L23.1657 38.1601ZM38.169 23.2168L23.1671 38.1587L24.5785 39.5758L39.5804 24.6339L38.169 23.2168ZM41.3513 23.2226C40.4709 22.3376 39.0451 22.3453 38.1694 23.2164L39.58 24.6343C39.6795 24.5353 39.8389 24.538 39.9335 24.6332L41.3513 23.2226ZM41.3445 26.4052C42.2245 25.5252 42.2245 24.1047 41.3531 23.2244L39.9317 24.6313C40.0305 24.7311 40.0305 24.8908 39.9303 24.991L41.3445 26.4052ZM26.3412 41.3485L41.3431 26.4066L39.9317 24.9896L24.9299 39.9314L26.3412 41.3485ZM24.7529 42.005C25.3256 42.005 25.9014 41.7883 26.3426 41.3471L24.9284 39.9328C24.8796 39.9817 24.8203 40.005 24.7529 40.005V42.005ZM36.0043 51.2564C35.937 51.2564 35.8748 51.2308 35.83 51.1854L34.4085 52.5924C34.8487 53.0371 35.4316 53.2564 36.0043 53.2564V51.2564ZM36.1798 51.1843C36.131 51.2331 36.0717 51.2564 36.0043 51.2564V53.2564C36.577 53.2564 37.1528 53.0397 37.5941 52.5985L36.1798 51.1843ZM51.1831 36.241L36.1813 51.1829L37.5926 52.5999L52.5945 37.658L51.1831 36.241ZM51.1831 35.8828C51.2819 35.9825 51.2819 36.1423 51.1817 36.2424L52.5959 37.6566C53.4759 36.7766 53.4759 35.3562 52.6045 34.4758L51.1831 35.8828ZM50.8314 35.8857C50.9309 35.7868 51.0903 35.7895 51.1849 35.8846L52.6027 34.474C51.7223 33.589 50.2965 33.5967 49.4208 34.4679L50.8314 35.8857ZM35.8299 50.8272L50.8318 35.8853L49.4204 34.4683L34.4185 49.4101L35.8299 50.8272ZM35.83 51.1854C35.7312 51.0856 35.7312 50.9259 35.8313 50.8258L34.4171 49.4116C33.5371 50.2915 33.5371 51.712 34.4085 52.5924L35.83 51.1854Z" fill="#606A71" mask="url(#path-1-outside-1)" _ngcontent-ccb-c207=""></path>
  </symbol>
  <symbol viewBox="0 0 60 58" fill="none" xmlns="http://www.w3.org/2000/svg" id="top-star" _ngcontent-ccb-c207="">
    <path d="M57.9804 19.2199C57.1399 18.4808 56.1053 18.0042 54.9883 17.8419L41.3115 15.8546L35.1951 3.46145C34.6955 2.44925 33.9226 1.61233 32.9599 1.04146C32.0667 0.511938 31.0433 0.231934 29.9999 0.231934C28.9565 0.231934 27.9329 0.511838 27.0399 1.04146C26.0772 1.61233 25.3044 2.44915 24.8048 3.46145L18.6884 15.8547L5.01173 17.8419C3.8946 18.0042 2.85988 18.4808 2.01947 19.2199C1.23984 19.9056 0.657409 20.7925 0.334955 21.7849C0.0126013 22.7772 -0.0375205 23.8371 0.19007 24.8501C0.435498 25.942 0.992518 26.9358 1.80094 27.7237L11.6975 37.3705L9.36117 50.9919C9.0717 52.6798 9.53634 54.3959 10.636 55.7003C11.7439 57.0145 13.3604 57.7681 15.0709 57.7681C16.0025 57.7681 16.9348 57.5368 17.7672 57.0992L30 50.668L42.2328 57.0992C43.0651 57.5368 43.9974 57.7681 44.929 57.7681C46.6395 57.7681 48.256 57.0145 49.364 55.7003C50.4636 54.3959 50.9283 52.6799 50.6388 50.9919L48.3026 37.3705L58.1991 27.7237C59.0075 26.9357 59.5645 25.942 59.8099 24.8501C60.0376 23.8371 59.9875 22.7772 59.6651 21.7849C59.3426 20.7926 58.7601 19.9057 57.9804 19.2199ZM55.2192 24.6669L44.2897 35.3208C43.9304 35.671 43.7664 36.1756 43.8513 36.6702L46.4314 51.7136C46.6004 52.6991 45.8174 53.4994 44.929 53.4994C44.6946 53.4994 44.4529 53.4436 44.2193 53.3208L30.7096 46.2183C30.4875 46.1016 30.2437 46.0432 30.0001 46.0432C29.7565 46.0432 29.5127 46.1016 29.2906 46.2183L15.7808 53.3208C15.5474 53.4436 15.3054 53.4994 15.0711 53.4994C14.1826 53.4994 13.3997 52.6991 13.5687 51.7136L16.1488 36.6702C16.2337 36.1756 16.0697 35.671 15.7104 35.3208L4.78055 24.6669C3.87567 23.7849 4.37499 22.2482 5.62545 22.0664L20.73 19.8716C21.2265 19.7995 21.6558 19.4876 21.8779 19.0376L28.6329 5.35064C28.9125 4.78405 29.4562 4.50076 30 4.50076C30.5439 4.50076 31.0875 4.78415 31.367 5.35064L38.122 19.0376C38.3441 19.4875 38.7733 19.7995 39.2699 19.8716L54.3743 22.0664C55.6249 22.2482 56.1241 23.7849 55.2192 24.6669Z" fill="#606A71" _ngcontent-ccb-c207=""></path>
    <path d="M44.929 57.8181C43.9893 57.8181 43.0491 57.5848 42.2097 57.1434L30.0001 50.7244L17.7905 57.1435C16.951 57.5849 16.0106 57.8182 15.0709 57.8182C13.3457 57.8182 11.7154 57.0581 10.5979 55.7327C9.48878 54.4171 9.02015 52.6861 9.31211 50.9837L11.6439 37.3882L1.76614 27.7597C0.950834 26.965 0.389131 25.9628 0.141511 24.8614C-0.0880727 23.8396 -0.0375523 22.7706 0.287592 21.7699C0.612836 20.7691 1.20035 19.8745 1.98665 19.183C2.83434 18.4374 3.87803 17.9568 5.00472 17.7931L18.6555 15.8096L24.7603 3.43984C25.2642 2.41887 26.0437 1.57487 27.0148 0.999015C27.9156 0.464913 28.9478 0.182617 30.0002 0.182617C31.0524 0.182617 32.0848 0.464913 32.9856 0.999015C33.9565 1.57477 34.7361 2.41887 35.24 3.43984L41.3448 15.8096L54.9957 17.7931C56.1223 17.9567 57.1658 18.4373 58.0136 19.183C58.8 19.8745 59.3875 20.7691 59.7126 21.77C60.0379 22.7708 60.0884 23.8398 59.8587 24.8615C59.6112 25.9629 59.0494 26.965 58.234 27.7598L48.3562 37.3882L50.688 50.9837C50.98 52.6861 50.5113 54.4171 49.4021 55.7327C48.2846 57.058 46.6542 57.8181 44.929 57.8181ZM30 50.612L30.0232 50.6242L42.2559 57.0553C43.0811 57.4892 44.0055 57.7185 44.9289 57.7185C46.6247 57.7185 48.2273 56.9712 49.3258 55.6684C50.4159 54.3752 50.8766 52.6739 50.5896 51.0005L48.249 37.3533L58.1643 27.6882C58.9657 26.907 59.5179 25.9219 59.7612 24.8395C59.987 23.8352 59.9373 22.7844 59.6177 21.8006C59.298 20.8168 58.7206 19.9374 57.9476 19.2576C57.1144 18.5248 56.0886 18.0524 54.9811 17.8916L41.2784 15.9005L41.2668 15.877L35.1506 3.48368C34.6552 2.48005 33.8889 1.6505 32.9346 1.08451C32.0492 0.559477 31.0345 0.281964 30.0001 0.281964C28.9656 0.281964 27.9509 0.559477 27.0655 1.08451C26.1112 1.6504 25.3449 2.48005 24.8496 3.48368L18.7216 15.9003L18.6957 15.9041L5.01897 17.8915C3.91151 18.0524 2.88566 18.5247 2.05242 19.2575C1.27957 19.9373 0.702018 20.8166 0.382355 21.8005C0.0626913 22.7843 0.0130677 23.835 0.238765 24.8394C0.4821 25.9219 1.03434 26.907 1.83579 27.6882L11.751 37.3533L11.7467 37.3792L9.41036 51.0005C9.12338 52.6739 9.58404 54.3752 10.6743 55.6684C11.7727 56.9712 13.3752 57.7185 15.071 57.7185C15.9946 57.7185 16.9189 57.4891 17.7441 57.0553L30 50.612ZM44.929 53.5493C44.6752 53.5493 44.4287 53.4873 44.1962 53.3649L30.6864 46.2625C30.265 46.0408 29.7356 46.0408 29.3138 46.2625L15.804 53.3649C15.5716 53.4873 15.3249 53.5493 15.0711 53.5493C14.6071 53.5493 14.1664 53.3422 13.8618 52.9811C13.5612 52.6246 13.4397 52.1715 13.5197 51.7052L16.0998 36.6618C16.1819 36.1834 16.0233 35.6955 15.6756 35.3566L4.74584 24.7027C4.31358 24.2814 4.16092 23.663 4.34746 23.0889C4.534 22.5147 5.02096 22.1042 5.61844 22.0174L20.7229 19.8226C21.2033 19.7527 21.6185 19.4511 21.8333 19.0159L28.5883 5.32892C28.8554 4.78755 29.3963 4.45124 30.0001 4.45124C30.6037 4.45124 31.1447 4.78755 31.4117 5.32892L38.1667 19.0159C38.3816 19.4512 38.7967 19.7528 39.2772 19.8226L54.3816 22.0174C54.9791 22.1042 55.4661 22.5148 55.6527 23.089C55.8392 23.663 55.6865 24.2814 55.2542 24.7027L44.3244 35.3567C43.9768 35.6955 43.8182 36.1834 43.9004 36.6619L46.4805 51.7053C46.5604 52.1715 46.4388 52.6246 46.1382 52.9811C45.8338 53.3422 45.393 53.5493 44.929 53.5493ZM30 45.9934C30.2543 45.9934 30.5077 46.056 30.7327 46.1743L44.2424 53.2767C44.4606 53.3913 44.6915 53.4495 44.929 53.4495C45.3635 53.4495 45.7767 53.2553 46.0621 52.9166C46.3435 52.5829 46.4572 52.1587 46.3822 51.7221L43.8021 36.6787C43.7145 36.1678 43.8837 35.6469 44.255 35.2851L55.1846 24.6313C55.5895 24.2366 55.7325 23.6574 55.5578 23.1197C55.383 22.5819 54.9268 22.1972 54.3671 22.1158L39.2627 19.921C38.75 19.8465 38.3067 19.5246 38.0774 19.0598L31.3224 5.37286C31.0721 4.86577 30.5654 4.55079 30 4.55079C29.4345 4.55079 28.9278 4.86577 28.6776 5.37286L21.9226 19.0598C21.6932 19.5246 21.2501 19.8466 20.7372 19.921L5.63269 22.1159C5.07308 22.1972 4.6169 22.5819 4.44222 23.1197C4.26754 23.6575 4.41053 24.2367 4.8154 24.6314L15.745 35.2852C16.1162 35.647 16.2855 36.168 16.1978 36.6788L13.6177 51.7222C13.5429 52.1588 13.6566 52.5831 13.9379 52.9168C14.2233 53.2553 14.6364 53.4496 15.0709 53.4496C15.3085 53.4496 15.5395 53.3914 15.7575 53.2768L29.2673 46.1744C29.4925 46.056 29.7458 45.9934 30 45.9934Z" fill="#606A71" _ngcontent-ccb-c207=""></path>
  </symbol>
  <symbol viewBox="0 0 25 25" fill="none" id="top-paper" xmlns="http://www.w3.org/2000/svg" _ngcontent-ccb-c207="">
    <g clip-path="url(#clip0)" _ngcontent-ccb-c207="">
      <path d="M21.3542 25H8.85417C7.41875 25 6.25 23.8323 6.25 22.3959V6.77085C6.25 5.3344 7.41875 4.16669 8.85417 4.16669H21.3542C22.7896 4.16669 23.9583 5.3344 23.9583 6.77085V22.3959C23.9583 23.8323 22.7896 25 21.3542 25ZM8.85417 5.20835C7.99271 5.20835 7.29167 5.9094 7.29167 6.77085V22.3959C7.29167 23.2573 7.99271 23.9584 8.85417 23.9584H21.3542C22.2156 23.9584 22.9167 23.2573 22.9167 22.3959V6.77085C22.9167 5.9094 22.2156 5.20835 21.3542 5.20835H8.85417Z" fill="#606A71" stroke="#606A71" _ngcontent-ccb-c207=""></path>
      <path d="M4.68734 21.875H3.64567C2.21025 21.875 1.0415 20.7073 1.0415 19.2708V2.60417C1.0415 1.16771 2.21025 0 3.64567 0H16.1457C17.5811 0 18.7498 1.16771 18.7498 2.60417C18.7498 2.89167 18.5165 3.125 18.229 3.125C17.9415 3.125 17.7082 2.89167 17.7082 2.60417C17.7082 1.74271 17.0071 1.04167 16.1457 1.04167H3.64567C2.78421 1.04167 2.08317 1.74271 2.08317 2.60417V19.2708C2.08317 20.1323 2.78421 20.8333 3.64567 20.8333H4.68734C4.97484 20.8333 5.20817 21.0667 5.20817 21.3542C5.20817 21.6417 4.97484 21.875 4.68734 21.875Z" fill="#606A71" stroke="#606A71" _ngcontent-ccb-c207=""></path>
      <path d="M19.2707 17.7083H10.9373C10.6498 17.7083 10.4165 17.475 10.4165 17.1875C10.4165 16.9 10.6498 16.6667 10.9373 16.6667H19.2707C19.5582 16.6667 19.7915 16.9 19.7915 17.1875C19.7915 17.475 19.5582 17.7083 19.2707 17.7083Z" fill="#606A71" stroke="#606A71" _ngcontent-ccb-c207=""></path>
      <path d="M19.2707 21.875H10.9373C10.6498 21.875 10.4165 21.6417 10.4165 21.3542C10.4165 21.0667 10.6498 20.8333 10.9373 20.8333H19.2707C19.5582 20.8333 19.7915 21.0667 19.7915 21.3542C19.7915 21.6417 19.5582 21.875 19.2707 21.875Z" fill="#606A71" stroke="#606A71" _ngcontent-ccb-c207=""></path>
      <path d="M19.2707 13.5417H10.9373C10.6498 13.5417 10.4165 13.3083 10.4165 13.0208C10.4165 12.7333 10.6498 12.5 10.9373 12.5H19.2707C19.5582 12.5 19.7915 12.7333 19.7915 13.0208C19.7915 13.3083 19.5582 13.5417 19.2707 13.5417Z" fill="#606A71" stroke="#606A71" _ngcontent-ccb-c207=""></path>
      <path d="M19.2707 9.37502H10.9373C10.6498 9.37502 10.4165 9.14168 10.4165 8.85418C10.4165 8.56668 10.6498 8.33334 10.9373 8.33334H19.2707C19.5582 8.33334 19.7915 8.56668 19.7915 8.85418C19.7915 9.14168 19.5582 9.37502 19.2707 9.37502Z" fill="#606A71" stroke="#606A71" _ngcontent-ccb-c207=""></path>
    </g>
    <defs _ngcontent-ccb-c207="">
      <clipPath id="clip0" _ngcontent-ccb-c207="">
        <rect width="25" height="25" fill="white" _ngcontent-ccb-c207=""></rect>
      </clipPath>
    </defs>
  </symbol>
  <symbol viewBox="0 0 50 60" fill="none" xmlns="http://www.w3.org/2000/svg" id="top-expiry" _ngcontent-ccb-c207="">
    <path d="M12.3999 55.1V55V45.3525C12.3999 42.8094 13.6692 40.4373 15.7824 39.0302L12.3999 55.1ZM12.3999 55.1H12.4999H37.5H37.6V55V45.3525C37.6 42.8094 36.3307 40.4371 34.216 39.0293L25.0554 32.9215L25 32.8845L24.9445 32.9215L15.7825 39.0302L12.3999 55.1ZM42.3999 55V55.1H42.4999H47.5C48.8254 55.1 49.8999 56.1746 49.8999 57.5C49.8999 58.8255 48.8254 59.9 47.5 59.9H40H9.99996H2.49996C1.17449 59.9 0.1 58.8254 0.1 57.4999C0.1 56.1744 1.17449 55.1 2.49996 55.1H7.5H7.6V55V45.3525C7.6 41.2042 9.67183 37.332 13.121 35.0357L13.1211 35.0357L20.5489 30.0832L20.6737 30L20.5489 29.9168L13.1225 24.9652L13.1224 24.9651C9.67182 22.6678 7.6 18.7957 7.6 14.6474V4.99992V4.89992H7.5H2.49996C1.17449 4.89992 0.1 3.82544 0.1 2.49996C0.1 1.17449 1.17449 0.1 2.49996 0.1H9.99996H40H47.5C48.8254 0.1 49.8999 1.17448 49.8999 2.50008C49.8999 3.82555 48.8254 4.90004 47.5 4.90004H42.4999H42.3999V5.00004V14.6475C42.3999 18.7958 40.3281 22.6679 36.8789 24.9643L36.8789 24.9643L29.451 29.9168L29.3263 30L29.451 30.0832L36.8775 35.0347L36.8775 35.0348C40.3281 37.3321 42.3999 41.2042 42.3999 45.3525V55ZM12.4999 4.90004H12.3999V5.00004V14.6475C12.3999 17.1906 13.6692 19.5628 15.7839 20.9707L24.9445 27.0785L25 27.1155L25.0554 27.0785L34.2173 20.9698C36.3306 19.5628 37.5999 17.1906 37.5999 14.6475V5.00004V4.90004H37.4999H12.4999Z" fill="#606A71" stroke="white" stroke-width="0.2" _ngcontent-ccb-c207=""></path>
    <path d="M19.8999 14.6504V14.7039L19.9445 14.7336L26.3311 18.9905C27.4339 19.7256 27.7321 21.2157 26.9969 22.3186L27.0802 22.3741L26.9969 22.3186C26.2619 23.4216 24.7718 23.7197 23.669 22.9845L23.669 22.9845L17.2779 18.7247C15.917 17.8142 15.1 16.2883 15.1 14.65V12.5C15.1 11.1745 16.1745 10.1 17.5 10.1C18.8254 10.1 19.8999 11.1745 19.8999 12.5V14.6504Z" fill="#606A71" stroke="white" stroke-width="0.2" _ngcontent-ccb-c207=""></path>
    <path d="M26.3313 37.015L26.3313 37.015C25.2284 36.2798 23.7383 36.578 23.0032 37.6808L23.0032 37.6808C22.268 38.7838 22.5663 40.2739 23.6691 41.0089L23.6137 41.0921L23.6691 41.0089L30.0557 45.2659L30.1003 45.2956V45.3491V47.4995C30.1003 48.825 31.1748 49.8994 32.5002 49.8994C33.8257 49.8994 34.9002 48.825 34.9002 47.4995V45.3494C34.9002 43.7113 34.0833 42.1855 32.7225 41.2748L26.3313 37.015ZM26.3313 37.015L32.7223 41.2747L26.3313 37.015Z" fill="#606A71" stroke="white" stroke-width="0.2" _ngcontent-ccb-c207=""></path>
  </symbol>
  <symbol id="top-sameday" viewBox="0 0 69 60" fill="none" xmlns="http://www.w3.org/2000/svg" _ngcontent-ccb-c207="">
    <path d="M2.00017 52H12.0002V58C12.0002 59.1045 12.8956 60 14.0002 60H66.2668C67.3714 60 68.2668 59.1045 68.2668 58V6C68.2668 4.89547 67.3714 4 66.2668 4H56.2668V2C56.2668 0.895467 55.3714 0 54.2668 0C53.1623 0 52.2668 0.895467 52.2668 2V4H42.1335V2C42.1335 0.895467 41.238 0 40.1335 0C39.029 0 38.1335 0.895467 38.1335 2V4H28.1335V2C28.1335 0.895467 27.238 0 26.1335 0C25.029 0 24.1335 0.895467 24.1335 2V4H14.0002C12.8956 4 12.0002 4.89547 12.0002 6V18C12.0002 32.74 5.87417 44.0795 0.719767 48.4636C0.0728334 49.0027 -0.167033 49.8891 0.1195 50.6809C0.4063 51.4727 1.15803 52 2.00017 52ZM64.2668 56H16.0002V52H54.2668C54.7347 52 55.1878 51.836 55.5472 51.5364C57.9515 49.5339 61.6756 44.7661 64.2668 38.6597V56ZM16.0002 8H24.1335V10C24.1335 11.1045 25.029 12 26.1335 12C27.238 12 28.1335 11.1045 28.1335 10V8H38.1335V10C38.1335 11.1045 39.029 12 40.1335 12C41.238 12 42.1335 11.1045 42.1335 10V8H52.2668V10C52.2668 11.1045 53.1623 12 54.2668 12C55.3714 12 56.2668 11.1045 56.2668 10V8H64.2668V16H16.0002V8ZM15.9659 19.9987H64.2314C63.7807 32.686 58.9112 42.6684 53.4826 48H6.54937C12.7004 40.1625 15.6359 29.9576 15.9659 19.9987Z" fill="#606A71" _ngcontent-ccb-c207=""></path>
  </symbol>
</svg>
