<svg width="0" height="0" class="hidden" aria-hidden="true">
  <symbol xmlns="http://www.w3.org/2000/svg" viewBox="0 0 512 512" id="ph">
    <circle cx="256" cy="256" r="256" fill="#f0f0f0"></circle>
    <path d="M256 0v256L74.98 437.02C121.307 483.346 185.307 512 256 512c141.384 0 256-114.616 256-256S256 0 256 0z"
      fill="#d80027"></path>
    <path d="M256 0C185.307 0 121.307 28.654 74.98 74.98L256 256h256C512 114.616 397.384 0 256 0z" fill="#0052b4">
    </path>
    <path
      d="M175.291 256l-31.264-14.706 16.649-30.279-33.95 6.495-4.302-34.297-23.648 25.224-23.647-25.224-4.303 34.297-33.949-6.496 16.649 30.28L22.261 256l31.265 14.706-16.649 30.279 33.952-6.494 4.299 34.296 23.648-25.224 23.648 25.224 4.302-34.296 33.948 6.495-16.648-30.279zM68.273 100.174l10.404 14.543 17.045-5.399-10.618 14.388 10.404 14.543-16.966-5.651-10.617 14.387.133-17.88-16.965-5.652 17.048-5.399zm0 264.841l10.404 14.543 17.045-5.4-10.618 14.389 10.404 14.543-16.966-5.651-10.617 14.387.133-17.88-16.965-5.652 17.048-5.399zm148.393-132.42l-10.403 14.543-17.046-5.401 10.618 14.389-10.404 14.544 16.966-5.652 10.618 14.387-.134-17.879 16.965-5.652-17.047-5.399z"
      fill="#ffda44"></path>
  </symbol>
  <symbol xmlns="http://www.w3.org/2000/svg" viewBox="0 0 512 512" id="kr">
    <circle cx="256" cy="256" r="256" fill="#f0f0f0"></circle>
    <path
      d="M345.043 256c0 22.261-39.866 77.913-89.043 77.913S166.957 278.261 166.957 256c0-49.178 39.866-89.043 89.043-89.043s89.043 39.865 89.043 89.043z"
      fill="#d80027"></path>
    <path d="M345.043 256c0 49.178-39.866 89.043-89.043 89.043S166.957 305.178 166.957 256" fill="#0052b4"></path>
    <path
      d="M350.442 334.705l23.61-23.61 15.741 15.74-23.61 23.61zm-39.357 39.355l23.61-23.612 15.741 15.741-23.61 23.611zm86.585 7.857l23.611-23.61 15.74 15.74-23.61 23.61zm-39.356 39.361l23.61-23.61 15.741 15.74-23.61 23.611zm15.741-62.965l23.61-23.61 15.741 15.74-23.61 23.61zm-39.346 39.354l23.61-23.61 15.741 15.74-23.61 23.611zm62.969-220.377l-62.963-62.963 15.741-15.74 62.962 62.962zm-62.965-15.732l-23.61-23.61 15.74-15.74 23.61 23.61zm39.347 39.349l-23.61-23.611 15.74-15.74 23.61 23.61zm7.855-86.571l-23.61-23.611 15.74-15.741 23.61 23.61zm39.368 39.352l-23.611-23.61 15.74-15.741 23.612 23.61zm-330.56 204.63l62.962 62.962-15.74 15.74-62.963-62.961zm62.957 15.732l23.611 23.611-15.74 15.74-23.61-23.61zm-39.35-39.347l23.611 23.611-15.74 15.741-23.611-23.61zm23.613-23.612l62.962 62.963-15.74 15.74-62.963-62.962zM153.684 90.72L90.72 153.683l-15.74-15.741 62.962-62.963zm23.603 23.605l-62.963 62.963-15.74-15.741 62.962-62.962zm23.625 23.622l-62.962 62.962-15.74-15.74 62.962-62.962z">
    </path>
  </symbol>
  <symbol xmlns="http://www.w3.org/2000/svg" viewBox="0 0 512 512" id="jp">
    <circle cx="256" cy="256" r="256" fill="#f0f0f0"></circle>
    <circle cx="256" cy="256" r="111.304" fill="#d80027"></circle>
  </symbol>
  <symbol xmlns="http://www.w3.org/2000/svg" viewBox="0 0 512 512" id="my">
    <circle cx="256" cy="256" r="256" fill="#f0f0f0"></circle>
    <path
      d="M244.87 256H512c0-23.107-3.08-45.489-8.819-66.783H244.87V256zm0-133.565h229.556a257.328 257.328 0 00-59.069-66.783H244.87v66.783zM256 512c60.249 0 115.626-20.824 159.357-55.652H96.643C140.374 491.176 195.751 512 256 512zM37.574 389.565h436.852a254.492 254.492 0 0028.755-66.783H8.819a254.46 254.46 0 0028.755 66.783z"
      fill="#d80027"></path>
    <path d="M256 256V0C114.616 0 0 114.616 0 256h256z" fill="#0052b4"></path>
    <g fill="#ffda44">
      <path
        d="M170.234 219.13c-34.962 0-63.304-28.343-63.304-63.304s28.343-63.304 63.304-63.304c10.901 0 21.158 2.757 30.113 7.609-14.048-13.737-33.26-22.217-54.461-22.217-43.029 0-77.913 34.883-77.913 77.913s34.884 77.913 77.913 77.913c21.201 0 40.413-8.48 54.461-22.217-8.955 4.85-19.211 7.607-30.113 7.607z">
      </path>
      <path
        d="M188.073 111.304l11.239 23.502 25.381-5.864-11.366 23.439 20.412 16.187-25.414 5.729.071 26.051-20.323-16.298-20.324 16.298.07-26.051-25.414-5.729 20.412-16.187-11.367-23.439 25.383 5.864z">
      </path>
    </g>
  </symbol>
  <symbol xmlns="http://www.w3.org/2000/svg" viewBox="0 0 512 512" id="sg">
    <circle cx="256" cy="256" r="256" fill="#f0f0f0"></circle>
    <path d="M0 256.001C0 114.616 114.616 0 256 0s256 114.616 256 256.001" fill="#d80027"></path>
    <g fill="#f0f0f0">
      <path
        d="M155.826 133.564c0-37.298 26.213-68.456 61.217-76.101a78.208 78.208 0 00-16.696-1.811c-43.031 0-77.913 34.882-77.913 77.913s34.882 77.913 77.913 77.913c5.733 0 11.315-.637 16.696-1.812-35.004-7.645-61.217-38.803-61.217-76.102zM256 61.217l5.526 17.005h17.881L264.94 88.733l5.526 17.005L256 95.229l-14.466 10.509 5.526-17.005-14.466-10.511h17.88z">
      </path>
      <path
        d="M212.625 94.608l5.525 17.006h17.881l-14.466 10.51 5.526 17.005-14.466-10.509-14.468 10.509 5.527-17.005-14.467-10.51h17.881zm86.751 0l5.527 17.006h17.88l-14.467 10.51 5.527 17.005-14.467-10.509-14.466 10.509 5.526-17.005-14.466-10.51h17.88zm-16.695 50.087l5.526 17.006h17.88l-14.466 10.51 5.526 17.005-14.466-10.509-14.466 10.509 5.526-17.005-14.466-10.51h17.879zm-53.361 0l5.525 17.006h17.882l-14.467 10.51 5.527 17.005-14.467-10.509-14.467 10.509 5.526-17.005-14.466-10.51h17.881z">
      </path>
    </g>
  </symbol>
  <symbol xmlns="http://www.w3.org/2000/svg" viewBox="0 0 512 512" id="tw">
    <svg viewBox="0 0 50 50" fill="none" xmlns="http://www.w3.org/2000/svg">
      <path
        d="M50 25C50 38.807 38.807 50 25 50C11.193 50 0 38.807 0 25C8.58691 16.4131 15.8695 9.13047 25 0C38.807 0 50 11.193 50 25Z"
        fill="#D80027"></path>
      <path d="M25 25C25 11.193 25 9.56523 25 0C11.193 0 0 11.193 0 25H25Z" fill="#0052B4"></path>
      <path
        d="M21.7393 14.6305L18.686 16.0668L20.3118 19.0237L16.9965 18.3894L16.5763 21.7387L14.2671 19.2754L11.9577 21.7387L11.5377 18.3894L8.22227 19.0235L9.84805 16.0666L6.79492 14.6305L9.84814 13.1944L8.22227 10.2374L11.5376 10.8717L11.9578 7.52246L14.2671 9.98574L16.5764 7.52246L16.9965 10.8717L20.3119 10.2374L18.686 13.1945L21.7393 14.6305Z"
        fill="#F0F0F0"></path>
      <path
        d="M14.2674 19.2838C16.8375 19.2838 18.921 17.2003 18.921 14.6302C18.921 12.0601 16.8375 9.97656 14.2674 9.97656C11.6973 9.97656 9.61377 12.0601 9.61377 14.6302C9.61377 17.2003 11.6973 19.2838 14.2674 19.2838Z"
        fill="#0052B4"></path>
      <path
        d="M14.2672 17.1107C12.8999 17.1107 11.7876 15.9983 11.7876 14.6311C11.7876 13.2638 12.9 12.1514 14.2672 12.1514C15.6345 12.1514 16.7469 13.2638 16.7469 14.6311C16.7468 15.9983 15.6343 17.1107 14.2672 17.1107Z"
        fill="#F0F0F0"></path>
    </svg>
  </symbol>
</svg>
